<svg width="180" height="180" viewBox="0 0 180 180" fill="none" xmlns="http://www.w3.org/2000/svg">
  <rect width="180" height="180" rx="36" fill="#0F1D40"/>
  <path d="M90 42C105.465 42 118 54.535 118 70V84.105C124.112 87.017 128.5 93.196 128.5 100.5C128.5 110.165 120.665 118 111 118H69C59.335 118 51.5 110.165 51.5 100.5C51.5 93.196 55.8882 87.017 62 84.1047V70C62 54.535 74.535 42 90 42ZM90 52.2C79.6939 52.2 71.6 60.2939 71.6 70.6V83.8H108.4V70.6C108.4 60.2939 100.306 52.2 90 52.2ZM69 92.6C65.129 92.6 62 95.729 62 99.6C62 103.471 65.129 106.6 69 106.6H111C114.871 106.6 118 103.471 118 99.6C118 95.729 114.871 92.6 111 92.6H69Z" fill="#7BA2FF"/>
  <circle cx="90" cy="88.5" r="9" fill="#F2F7FF"/>
  <path d="M74 128H106" stroke="#F2F7FF" stroke-width="8" stroke-linecap="round"/>
</svg>

