<svg width="128" height="128" viewBox="0 0 128 128" fill="none" xmlns="http://www.w3.org/2000/svg">
  <rect width="128" height="128" rx="28" fill="#0F1D40"/>
  <path d="M64 30C77.8071 30 89 41.1929 89 55V66.2C93.6189 68.1921 97 72.961 97 78.5C97 85.4036 91.4036 91 84.5 91H43.5C36.5964 91 31 85.4036 31 78.5C31 72.961 34.3811 68.1921 39 66.2V55C39 41.1929 50.1929 30 64 30ZM64 38C54.6112 38 47 45.6112 47 55V65.5H81V55C81 45.6112 73.3888 38 64 38ZM43.5 74.5C40.4624 74.5 38 76.9624 38 80C38 83.0376 40.4624 85.5 43.5 85.5H84.5C87.5376 85.5 90 83.0376 90 80C90 76.9624 87.5376 74.5 84.5 74.5H43.5Z" fill="#7BA2FF"/>
  <path d="M64 58C67.3137 58 70 60.6863 70 64C70 67.3137 67.3137 70 64 70C60.6863 70 58 67.3137 58 64C58 60.6863 60.6863 58 64 58Z" fill="#F2F7FF"/>
  <path d="M52 98H76" stroke="#F2F7FF" stroke-width="6" stroke-linecap="round"/>
</svg>

